<svg width="200" height="200" viewBox="0 0 100 100" xmlns="http://www.w3.org/2000/svg">
  <title>Old-School JRPG Icon (Favicon Optimized V2)</title>
  <style>
    /* Basic pixel-art styling */
    .pixel {
      fill: currentColor; /* Allows setting color via parent group or element */
      shape-rendering: crispEdges; /* Ensures sharp, non-blurry pixels */
    }
    .dark-bg { fill: #2C3E50; } /* Dark blue/grey background for contrast */
    .medium-grey { fill: #7F8C8D; }
    .light-grey { fill: #BDC3C7; }
    .gold { fill: #F1C40F; }
    .brown { fill: #A0522D; }
    .silver { fill: #ECF0F1; }
    .blue-crystal { fill: #3498DB; }
    .dark-blue-crystal { fill: #2980B9; }
    .white { fill: #FFFFFF; }
    .black { fill: #000000; }
  </style>

  <!-- Background fills the entire 100x100 viewBox -->
  <rect x="0" y="0" width="100" height="100" class="dark-bg"/>

  <!--
    Outer Group to scale and translate all content:
    - The original content's combined bounding box (Shield, Crystal, and NEW Sword)
      now spans roughly from (35, 25) to (71.31, 64).
    - Max dimension is 39 units (height). To scale this to roughly 90 units
      (90% of 100x100), we need a scale factor of 90/39 = ~2.3.
    - Translation calculated to center the scaled content within the 100x100 viewBox.
  -->
  <g transform="translate(-75.5, -52.5) scale(2.3)">

    <!-- Original content starts here -->

    <!-- Shield (roughly 30x35 pixels) -->
    <g id="shield" transform="translate(35, 30)">
      <!-- Base shield shape (medium grey) -->
      <rect x="10" y="0" width="10" height="2" class="medium-grey"/>
      <rect x="8" y="2" width="14" height="2" class="medium-grey"/>
      <rect x="6" y="4" width="18" height="2" class="medium-grey"/>
      <rect x="4" y="6" width="22" height="2" class="medium-grey"/>
      <rect x="2" y="8" width="26" height="2" class="medium-grey"/>
      <rect x="0" y="10" width="30" height="2" class="medium-grey"/>
      <rect x="0" y="12" width="30" height="2" class="medium-grey"/>
      <rect x="0" y="14" width="30" height="2" class="medium-grey"/>
      <rect x="0" y="16" width="30" height="2" class="medium-grey"/>
      <rect x="0" y="18" width="30" height="2" class="medium-grey"/>
      <rect x="0" y="20" width="30" height="2" class="medium-grey"/>
      <rect x="0" y="22" width="30" height="2" class="medium-grey"/>
      <rect x="2" y="24" width="26" height="2" class="medium-grey"/>
      <rect x="4" y="26" width="22" height="2" class="medium-grey"/>
      <rect x="6" y="28" width="18" height="2" class="medium-grey"/>
      <rect x="8" y="30" width="14" height="2" class="medium-grey"/>
      <rect x="10" y="32" width="10" height="2" class="medium-grey"/>

      <!-- Shield inner detail (light grey cross) -->
      <rect x="14" y="10" width="2" height="12" class="light-grey"/>
      <rect x="10" y="14" width="10" height="2" class="light-grey"/>
    </g>

    <!-- Sword (Shorter, Thicker Blade) -->
    <!-- Adjusted transform to position it better relative to the shield -->
    <g id="sword" transform="translate(45, 35) rotate(-45 15 15)">
      <!-- Blade (silver) - Now width=4 and shorter -->
      <rect x="13" y="0" width="4" height="2" class="silver"/>
      <rect x="13" y="2" width="4" height="2" class="silver"/>
      <rect x="13" y="4" width="4" height="2" class="silver"/>
      <rect x="13" y="6" width="4" height="2" class="silver"/>
      <rect x="13" y="8" width="4" height="2" class="silver"/>
      <rect x="13" y="10" width="4" height="2" class="silver"/>
      <rect x="13" y="12" width="4" height="2" class="silver"/>
      <rect x="13" y="14" width="4" height="2" class="silver"/>
      <rect x="13" y="16" width="4" height="2" class="silver"/>
      <rect x="13" y="18" width="4" height="2" class="silver"/>
      <rect x="13" y="20" width="4" height="2" class="silver"/>

      <!-- Blade tip (silver) - Adjusted for new width -->
      <rect x="13" y="-2" width="4" height="2" class="silver"/>

      <!-- Crossguard (gold) - Shifted up to match shorter blade -->
      <rect x="8" y="22" width="14" height="2" class="gold"/>
      <rect x="8" y="24" width="14" height="2" class="gold"/>

      <!-- Hilt (brown) - Shifted up -->
      <rect x="12" y="26" width="6" height="2" class="brown"/>
      <rect x="12" y="28" width="6" height="2" class="brown"/>
      <rect x="12" y="30" width="6" height="2" class="brown"/>

      <!-- Pommel (gold) - Shifted up -->
      <rect x="14" y="32" width="2" height="2" class="gold"/>
    </g>

    <!-- Crystal/Gem (background element, behind shield) -->
    <!-- Kept original position; it will be scaled/translated by the outer group -->
    <g id="crystal" transform="translate(48, 25)">
      <rect x="0" y="0" width="4" height="2" class="dark-blue-crystal"/>
      <rect x="-2" y="2" width="8" height="2" class="dark-blue-crystal"/>
      <rect x="-4" y="4" width="12" height="2" class="dark-blue-crystal"/>
      <rect x="-6" y="6" width="16" height="2" class="dark-blue-crystal"/>
      <rect x="-4" y="8" width="12" height="2" class="blue-crystal"/>
      <rect x="-2" y="10" width="8" height="2" class="blue-crystal"/>
      <rect x="0" y="12" width="4" height="2" class="blue-crystal"/>

      <!-- Sparkle on crystal -->
      <rect x="0" y="4" width="2" height="2" class="white"/>
    </g>

  </g>
</svg>
